<svg width="17" height="18" viewBox="0 0 17 18" fill="none" xmlns="http://www.w3.org/2000/svg">
<line x1="6" y1="3" x2="17" y2="3" stroke="white" stroke-width="2"/>
<line x1="6" y1="9" x2="17" y2="9" stroke="white" stroke-width="2"/>
<line x1="6" y1="15" x2="17" y2="15" stroke="white" stroke-width="2"/>
<path d="M2.49272 1.36364V5H2.05238V1.82528H2.03107L1.14329 2.41477V1.96733L2.05238 1.36364H2.49272Z" fill="white"/>
<path d="M0.862749 11V10.6804L2.06303 9.36648C2.20389 9.21259 2.3199 9.07884 2.41104 8.9652C2.50219 8.85038 2.56966 8.74266 2.61346 8.64205C2.65844 8.54025 2.68093 8.43371 2.68093 8.32244C2.68093 8.1946 2.65015 8.08393 2.5886 7.99041C2.52823 7.8969 2.44537 7.82469 2.34002 7.77379C2.23467 7.72289 2.1163 7.69744 1.98491 7.69744C1.84523 7.69744 1.72331 7.72644 1.61914 7.78445C1.51616 7.84126 1.43626 7.92116 1.37944 8.02415C1.3238 8.12713 1.29599 8.24787 1.29599 8.38636H0.876953C0.876953 8.1733 0.926077 7.98627 1.02433 7.82528C1.12257 7.6643 1.25633 7.53883 1.4256 7.44886C1.59606 7.3589 1.78723 7.31392 1.99911 7.31392C2.21218 7.31392 2.40098 7.3589 2.56552 7.44886C2.73005 7.53883 2.85908 7.66016 2.95259 7.81286C3.04611 7.96555 3.09286 8.13542 3.09286 8.32244C3.09286 8.4562 3.0686 8.587 3.02006 8.71484C2.97272 8.8415 2.88986 8.98295 2.77148 9.1392C2.6543 9.29427 2.49154 9.48366 2.2832 9.70739L1.46644 10.581V10.6094H3.15678V11H0.862749Z" fill="white"/>
<path d="M2.01332 17.0497C1.77894 17.0497 1.57002 17.0095 1.38654 16.929C1.20425 16.8485 1.05924 16.7366 0.951527 16.5934C0.844993 16.449 0.786991 16.2815 0.777521 16.0909H1.22496C1.23443 16.2081 1.27468 16.3093 1.3457 16.3945C1.41673 16.4786 1.50965 16.5437 1.62447 16.5898C1.73929 16.636 1.86654 16.6591 2.00621 16.6591C2.16246 16.6591 2.30096 16.6319 2.4217 16.5774C2.54244 16.523 2.63713 16.4472 2.70579 16.3501C2.77444 16.2531 2.80877 16.1406 2.80877 16.0128C2.80877 15.879 2.77563 15.7612 2.70934 15.6594C2.64305 15.5565 2.54599 15.476 2.41815 15.418C2.29031 15.36 2.13406 15.331 1.9494 15.331H1.6582V14.9403H1.9494C2.09381 14.9403 2.22047 14.9143 2.32937 14.8622C2.43945 14.8101 2.52527 14.7367 2.58683 14.642C2.64956 14.5473 2.68093 14.4361 2.68093 14.3082C2.68093 14.1851 2.65371 14.078 2.59925 13.9869C2.5448 13.8957 2.46786 13.8247 2.36843 13.7738C2.27018 13.7229 2.15418 13.6974 2.02042 13.6974C1.89495 13.6974 1.77657 13.7205 1.66531 13.7667C1.55522 13.8117 1.46526 13.8774 1.39542 13.9638C1.32558 14.049 1.2877 14.152 1.28178 14.2727H0.855646C0.862749 14.0821 0.920159 13.9152 1.02788 13.772C1.13559 13.6276 1.27646 13.5152 1.45046 13.4347C1.62565 13.3542 1.818 13.3139 2.02752 13.3139C2.25243 13.3139 2.44537 13.3595 2.60636 13.4506C2.76734 13.5406 2.89104 13.6596 2.97745 13.8075C3.06386 13.9555 3.10707 14.1153 3.10707 14.2869C3.10707 14.4917 3.05321 14.6663 2.94549 14.8107C2.83896 14.9551 2.69395 15.0552 2.51048 15.1108V15.1392C2.74012 15.1771 2.91945 15.2747 3.04847 15.4322C3.1775 15.5884 3.24201 15.782 3.24201 16.0128C3.24201 16.2105 3.18815 16.388 3.08043 16.5455C2.9739 16.7017 2.8283 16.8248 2.64364 16.9148C2.45898 17.0047 2.24888 17.0497 2.01332 17.0497Z" fill="white"/>
</svg>
