<svg width="11" height="14" viewBox="0 0 11 14" fill="none" xmlns="http://www.w3.org/2000/svg">
<path d="M0.187589 14V0.909091H5.42907C6.39213 0.909091 7.1954 1.05185 7.83887 1.33736C8.48233 1.62287 8.966 2.01918 9.28986 2.52628C9.61373 3.02912 9.77566 3.60866 9.77566 4.26491C9.77566 4.77628 9.67338 5.22585 9.46884 5.61364C9.26429 5.99716 8.98304 6.3125 8.62509 6.55966C8.2714 6.80256 7.86657 6.97514 7.4106 7.07741V7.20526C7.90918 7.22656 8.3758 7.36719 8.81046 7.62713C9.24938 7.88707 9.6052 8.25142 9.87793 8.72017C10.1507 9.18466 10.287 9.73864 10.287 10.3821C10.287 11.0767 10.1144 11.6967 9.76926 12.2422C9.42836 12.7834 8.92338 13.2116 8.25435 13.527C7.58532 13.8423 6.76074 14 5.78063 14H0.187589ZM2.95534 11.7372H5.21174C5.98304 11.7372 6.54554 11.5902 6.89924 11.2962C7.25293 10.9979 7.42978 10.6016 7.42978 10.1072C7.42978 9.74503 7.34242 9.42543 7.1677 9.14844C6.99299 8.87145 6.7437 8.65412 6.41983 8.49645C6.10023 8.33878 5.71884 8.25994 5.27566 8.25994H2.95534V11.7372ZM2.95534 6.38707H5.00719C5.38645 6.38707 5.7231 6.32102 6.01713 6.18892C6.31543 6.05256 6.54981 5.8608 6.72026 5.61364C6.89498 5.36648 6.98233 5.07031 6.98233 4.72514C6.98233 4.25213 6.81401 3.87074 6.47736 3.58097C6.14498 3.29119 5.67196 3.14631 5.05833 3.14631H2.95534V6.38707Z" fill="white"/>
</svg>
