<svg width="12" height="14" viewBox="0 0 12 14" fill="none" xmlns="http://www.w3.org/2000/svg">
<path d="M9.18428 3.57954C9.10298 2.90782 8.77326 2.38636 8.19512 2.01515C7.61697 1.64393 6.90785 1.45833 6.06775 1.45833C5.45348 1.45833 4.91599 1.55555 4.45528 1.75C3.9991 1.94444 3.64228 2.2118 3.38483 2.55208C3.13189 2.89236 3.00542 3.27904 3.00542 3.71212C3.00542 4.07449 3.0935 4.38603 3.26965 4.64677C3.45032 4.90309 3.68067 5.11742 3.9607 5.28977C4.24075 5.45769 4.53432 5.5969 4.84146 5.70738C5.1486 5.81343 5.4309 5.8996 5.68835 5.9659L7.09756 6.33711C7.45889 6.42991 7.86088 6.55807 8.30352 6.72158C8.75068 6.88508 9.17751 7.10826 9.584 7.39108C9.99502 7.66949 10.3338 8.02744 10.6003 8.46495C10.8668 8.90244 11 9.43937 11 10.0757C11 10.8093 10.8035 11.4722 10.4106 12.0644C10.0221 12.6565 9.45303 13.1272 8.70325 13.4763C7.95799 13.8255 7.0524 14 5.98645 14C4.99277 14 4.13234 13.8431 3.40514 13.5293C2.68248 13.2156 2.11338 12.778 1.69783 12.2168C1.28681 11.6556 1.0542 11.0038 1 10.2613H2.73441C2.77959 10.774 2.95574 11.1982 3.26287 11.5341C3.57452 11.8655 3.96747 12.113 4.44174 12.2765C4.9205 12.4356 5.43541 12.5151 5.98645 12.5151C6.62782 12.5151 7.2037 12.4135 7.71408 12.2102C8.22448 12.0025 8.62872 11.7153 8.92683 11.3485C9.22493 10.9772 9.37397 10.5442 9.37397 10.0492C9.37397 9.59846 9.24525 9.23168 8.9878 8.94884C8.73034 8.66601 8.39159 8.43623 7.97154 8.25945C7.55149 8.08268 7.09756 7.92801 6.60975 7.79544L4.90243 7.31816C3.81843 7.01324 2.96025 6.57795 2.32791 6.0123C1.69557 5.44665 1.37941 4.70643 1.37941 3.79166C1.37941 3.03156 1.58944 2.36868 2.00948 1.80303C2.43406 1.23295 3.00316 0.791029 3.71681 0.47727C4.43495 0.15909 5.23667 0 6.12195 0C7.01626 0 7.81119 0.156881 8.50677 0.470643C9.20235 0.779989 9.75338 1.20423 10.1599 1.74337C10.5709 2.28251 10.7877 2.89456 10.8103 3.57954H9.18428Z" fill="white"/>
<path d="M0 8H12V9H0V8Z" fill="white"/>
</svg>
