<svg width="14" height="14" viewBox="0 0 14 14" fill="none" xmlns="http://www.w3.org/2000/svg">
<path d="M1.96462 0L4.62265 4.53597L7.28066 0H9.24529L5.66275 5.54714L9.24529 11.0943H7.28066L4.62265 6.78946L1.96462 11.0943H0L3.52476 5.54714L0 0H1.96462Z" fill="white"/>
<path d="M10.2373 14V13.5357L11.9811 11.6268C12.1858 11.4032 12.3543 11.2088 12.4867 11.0438C12.6191 10.877 12.7172 10.7205 12.7808 10.5742C12.8461 10.4263 12.8788 10.2716 12.8788 10.1099C12.8788 9.92423 12.8341 9.7634 12.7447 9.62756C12.657 9.49172 12.5366 9.38683 12.3835 9.31288C12.2305 9.23893 12.0585 9.20188 11.8676 9.20188C11.6647 9.20188 11.4876 9.24401 11.3362 9.32828C11.1866 9.41095 11.0705 9.52703 10.988 9.67652C10.9071 9.82616 10.8667 10.0017 10.8667 10.2029H10.2579C10.2579 9.89329 10.3293 9.62161 10.4721 9.3877C10.6148 9.15379 10.8091 8.97146 11.055 8.84085C11.3027 8.7101 11.5804 8.64472 11.8882 8.64472C12.1978 8.64472 12.4721 8.7101 12.7111 8.84085C12.9502 8.97146 13.1376 9.14784 13.2735 9.36968C13.4093 9.59153 13.4773 9.83822 13.4773 10.1099C13.4773 10.3043 13.442 10.4943 13.3716 10.68C13.3027 10.8641 13.1824 11.0696 13.0104 11.2966C12.8401 11.5219 12.6037 11.7971 12.301 12.1221L11.1144 13.3913V13.4325H13.5702V14H10.2373Z" fill="white"/>
</svg>
