<svg width="17" height="19" viewBox="0 0 17 19" fill="none" xmlns="http://www.w3.org/2000/svg">
<g clip-path="url(#clip0_9_66)">
<path d="M12.3026 7.125V6.59367L14.5 4.40927C14.758 4.15344 14.9703 3.93107 15.1372 3.74215C15.3041 3.55126 15.4275 3.37218 15.5077 3.2049C15.5901 3.03566 15.6312 2.85855 15.6312 2.67356C15.6312 2.46103 15.5749 2.27703 15.4622 2.12157C15.3517 1.9661 15.2 1.84605 15.0071 1.76143C14.8142 1.67681 14.5975 1.6345 14.357 1.6345C14.1012 1.6345 13.878 1.68271 13.6874 1.77914C13.4988 1.8736 13.3526 2.00644 13.2485 2.17765C13.1466 2.34885 13.0958 2.54959 13.0958 2.77983H12.3286C12.3286 2.4256 12.4185 2.11468 12.5984 1.84704C12.7783 1.5794 13.0231 1.37081 13.333 1.22124C13.6451 1.07168 13.9951 0.996895 14.3831 0.996895C14.7731 0.996895 15.1188 1.07168 15.4199 1.22124C15.7212 1.37081 15.9574 1.57251 16.1286 1.82638C16.2997 2.08024 16.3854 2.36263 16.3854 2.67356C16.3854 2.89594 16.3409 3.11339 16.2521 3.32593C16.1654 3.5365 16.0137 3.77167 15.7971 4.03143C15.5825 4.28923 15.2846 4.60409 14.9031 4.97603L13.4078 6.42836V6.47558H16.5024V7.125H12.3026Z" fill="white"/>
<path d="M1.99874 7.77272L5.18624 12.4435H5.28284L8.47034 7.77272H10.2331L6.34534 13.3863L10.2331 19H8.47034L5.28284 14.417H5.18624L1.99874 19H0.235962L4.22034 13.3863L0.235962 7.77272H1.99874Z" fill="white"/>
</g>
<defs>
<clipPath id="clip0_9_66">
<rect width="17" height="19" fill="white"/>
</clipPath>
</defs>
</svg>
