<svg width="11" height="15" viewBox="0 0 11 15" fill="none" xmlns="http://www.w3.org/2000/svg">
<path d="M8.2263 0.818182H9.45925V7.55966C9.45925 8.25568 9.29519 8.87713 8.96706 9.42401C8.64225 9.96757 8.18321 10.3968 7.58993 10.7116C6.99666 11.0232 6.30063 11.179 5.50186 11.179C4.7031 11.179 4.00707 11.0232 3.4138 10.7116C2.82052 10.3968 2.35982 9.96757 2.03169 9.42401C1.70688 8.87713 1.54448 8.25568 1.54448 7.55966V0.818182H2.77743V7.46023C2.77743 7.95739 2.88681 8.39986 3.10556 8.78764C3.32431 9.17211 3.63586 9.47538 4.04022 9.69744C4.44789 9.91619 4.9351 10.0256 5.50186 10.0256C6.06863 10.0256 6.55584 9.91619 6.96351 9.69744C7.37118 9.47538 7.68274 9.17211 7.89817 8.78764C8.11692 8.39986 8.2263 7.95739 8.2263 7.46023V0.818182Z" fill="white"/>
<path d="M0.311523 13.7841H10.6922V14.7386H0.311523V13.7841Z" fill="white"/>
</svg>
