<svg width="17" height="17" viewBox="0 0 17 17" fill="none" xmlns="http://www.w3.org/2000/svg">
<g clip-path="url(#clip0_18_8)">
<path d="M13.979 3.022C10.958 7.15256e-07 6.04201 7.15256e-07 3.02101 3.022C5.48363e-06 6.042 0.00100541 10.958 3.02101 13.98C6.04201 17 10.958 17 13.979 13.979C16.999 10.958 16.999 6.043 13.979 3.022ZM13.134 13.134C11.9041 14.3614 10.2376 15.0508 8.50001 15.0508C6.76245 15.0508 5.09587 14.3614 3.866 13.134C2.6389 11.9042 1.94974 10.2378 1.94974 8.5005C1.94974 6.76319 2.6389 5.09682 3.866 3.867C5.09587 2.63959 6.76245 1.95024 8.50001 1.95024C10.2376 1.95024 11.9041 2.63959 13.134 3.867C14.3611 5.09682 15.0503 6.76319 15.0503 8.5005C15.0503 10.2378 14.3611 11.9042 13.134 13.134ZM5.61001 6.404C5.60597 6.28256 5.6264 6.16154 5.67009 6.04816C5.71378 5.93477 5.77983 5.83133 5.86431 5.744C5.9488 5.65666 6.04998 5.58721 6.16185 5.53978C6.27373 5.49235 6.39399 5.4679 6.5155 5.4679C6.63702 5.4679 6.75729 5.49235 6.86916 5.53978C6.98103 5.58721 7.08222 5.65666 7.1667 5.744C7.25118 5.83133 7.31723 5.93477 7.36092 6.04816C7.40461 6.16154 7.42504 6.28256 7.42101 6.404C7.4132 6.63895 7.31438 6.86166 7.14541 7.0251C6.97645 7.18854 6.75058 7.2799 6.5155 7.2799C6.28043 7.2799 6.05456 7.18854 5.8856 7.0251C5.71664 6.86166 5.61782 6.63895 5.61001 6.404ZM9.71601 6.404C9.71601 6.16371 9.81146 5.93327 9.98137 5.76336C10.1513 5.59345 10.3817 5.498 10.622 5.498C10.8623 5.498 11.0927 5.59345 11.2626 5.76336C11.4326 5.93327 11.528 6.16371 11.528 6.404C11.528 6.64429 11.4326 6.87473 11.2626 7.04464C11.0927 7.21455 10.8623 7.31 10.622 7.31C10.3817 7.31 10.1513 7.21455 9.98137 7.04464C9.81146 6.87473 9.71601 6.64429 9.71601 6.404ZM11.857 10.112C11.296 11.41 9.98201 12.249 8.50901 12.249C7.00401 12.249 5.68201 11.406 5.14001 10.102C5.09545 9.99459 5.09539 9.87387 5.13983 9.76642C5.18428 9.65896 5.26959 9.57356 5.37701 9.529C5.48442 9.48444 5.60513 9.48438 5.71259 9.52883C5.82005 9.57328 5.90545 9.65859 5.95001 9.766C6.35501 10.742 7.36001 11.373 8.50901 11.373C9.63201 11.373 10.63 10.742 11.053 9.765C11.101 9.66146 11.1876 9.58075 11.2942 9.54006C11.4008 9.49937 11.5191 9.50191 11.6239 9.54713C11.7287 9.59236 11.8117 9.6767 11.8552 9.78221C11.8988 9.88771 11.8994 10.006 11.857 10.112Z" fill="white"/>
</g>
<defs>
<clipPath id="clip0_18_8">
<rect width="17" height="17" fill="white"/>
</clipPath>
</defs>
</svg>
